<?xml version="1.0" standalone="no"?>
<!DOCTYPE svg PUBLIC "-//W3C//DTD SVG 20010904//EN"
 "http://www.w3.org/TR/2001/REC-SVG-20010904/DTD/svg10.dtd">
<svg version="1.0" xmlns="http://www.w3.org/2000/svg"
 width="800.000000pt" height="800.000000pt" viewBox="0 0 800.000000 800.000000"
 preserveAspectRatio="xMidYMid meet">
<metadata>
Created by potrace 1.14, written by Peter Selinger 2001-2017
</metadata>
<g transform="translate(0.000000,800.000000) scale(0.100000,-0.100000)"
fill="#000000" stroke="none">
<path d="M3150 6966 c0 -9 -17 -13 -57 -13 -49 0 -66 -5 -110 -34 -29 -19 -55
-41 -58 -49 -3 -8 -21 -33 -41 -55 -19 -22 -60 -78 -91 -125 -79 -121 -90
-131 -129 -124 -18 3 -65 1 -104 -5 -62 -10 -80 -9 -124 5 -84 28 -101 45
-126 126 -28 93 -50 140 -63 135 -6 -2 -20 6 -31 17 -12 12 -21 15 -24 8 -2
-6 -11 -8 -19 -5 -13 5 -15 2 -10 -11 6 -14 3 -17 -8 -12 -9 3 -18 -1 -22 -10
-5 -13 -8 -13 -29 1 -18 12 -24 12 -24 3 0 -17 -38 -41 -50 -33 -6 4 -10 -6
-10 -20 0 -14 -4 -24 -9 -21 -5 4 -25 -9 -45 -28 -39 -38 -58 -94 -57 -166 1
-57 24 -178 40 -208 29 -54 59 -190 60 -271 1 -59 6 -92 17 -109 9 -13 24 -47
34 -75 33 -92 110 -270 128 -295 50 -71 49 -70 51 -242 1 -91 6 -194 12 -230
6 -36 11 -82 10 -102 -1 -22 3 -38 9 -38 7 0 10 -24 8 -65 -1 -35 -6 -59 -10
-52 -9 14 -9 15 -13 -43 -2 -25 1 -52 6 -60 8 -15 12 2 11 55 -1 16 0 16 4 3
3 -10 11 -15 20 -11 8 3 14 0 14 -6 0 -7 -6 -14 -14 -17 -26 -10 -26 -84 -1
-169 21 -70 31 -79 27 -22 -2 15 1 15 12 5 9 -8 11 -19 6 -28 -5 -8 -2 -26 6
-42 9 -18 11 -28 4 -28 -7 0 -9 -8 -5 -20 3 -11 2 -20 -4 -20 -5 0 -13 15 -17
33 -6 28 -8 29 -15 12 -4 -11 -10 -33 -14 -48 -4 -20 -10 -27 -20 -23 -10 4
-15 -2 -14 -17 0 -12 0 -51 0 -87 -1 -187 15 -328 52 -466 8 -29 12 -78 9
-113 -3 -39 -1 -61 6 -61 6 0 14 9 17 20 11 35 22 13 23 -45 0 -70 12 -138 24
-146 15 -9 -3 -39 -23 -39 -10 0 -19 -7 -19 -15 0 -8 -4 -15 -10 -15 -5 0 -10
9 -10 20 0 11 -5 20 -11 20 -6 0 -8 9 -3 23 3 12 3 19 -1 15 -11 -11 -13 -98
-2 -98 9 0 6 -25 -9 -79 -5 -16 -4 -22 3 -18 6 4 14 -4 17 -18 4 -14 10 -23
15 -21 5 3 17 -6 27 -20 11 -15 25 -32 31 -39 7 -8 13 -22 14 -32 0 -14 2 -15
7 -3 4 9 11 -4 19 -35 l12 -50 -2 47 c-2 42 -1 45 13 30 27 -31 50 -94 33 -91
-31 5 -43 -3 -42 -28 0 -24 1 -25 8 -8 7 16 9 13 15 -18 5 -26 3 -44 -6 -55
-11 -13 -11 -15 2 -7 12 6 13 5 3 -6 -16 -16 -17 -33 -2 -23 6 3 15 0 20 -7 6
-9 9 -2 9 24 0 21 4 36 9 33 5 -4 12 0 14 6 3 8 6 6 6 -4 1 -20 31 -25 31 -6
0 6 2 9 5 7 8 -8 -7 -49 -16 -43 -5 3 -9 -2 -9 -10 0 -9 -4 -16 -10 -16 -5 0
-10 -5 -10 -12 0 -6 9 -3 20 7 20 18 21 18 14 -1 -4 -10 -11 -25 -17 -31 -6
-9 -4 -15 6 -19 22 -8 34 1 39 31 3 13 2 22 -3 20 -4 -3 -7 25 -7 62 1 38 -1
111 -4 163 -4 58 -2 86 3 72 5 -12 9 -47 10 -77 2 -37 8 -61 21 -74 22 -24 23
-31 3 -31 -8 0 -15 -9 -15 -20 0 -25 16 -26 23 -2 4 9 14 28 24 42 10 13 12
21 6 16 -9 -4 -13 -1 -13 10 0 13 -3 14 -15 4 -19 -16 -21 5 -2 25 8 7 13 33
12 64 -1 55 19 72 28 24 13 -66 28 -114 46 -145 11 -18 23 -57 27 -85 3 -29
10 -50 15 -47 5 3 6 -2 3 -10 -4 -10 -1 -16 8 -16 7 0 20 -20 29 -45 9 -24 12
-42 8 -39 -18 11 -8 -12 12 -29 11 -10 18 -25 15 -33 -3 -8 -2 -13 3 -10 5 3
11 -1 15 -9 3 -8 0 -15 -7 -15 -8 0 -7 -4 3 -10 9 -6 17 -5 22 3 5 8 9 6 14
-7 5 -14 9 -15 15 -4 6 9 9 4 9 -15 0 -16 4 -26 10 -22 6 3 10 2 10 -4 0 -5
-5 -13 -10 -16 -5 -3 -10 -11 -10 -18 0 -19 29 27 31 48 1 17 2 16 9 -5 l8
-25 1 27 c1 32 21 49 21 17 0 -44 8 -13 14 60 4 41 4 71 -1 68 -5 -3 -9 5 -9
19 0 14 6 24 14 24 8 0 12 -6 9 -13 -3 -7 2 -22 10 -32 14 -19 15 -18 11 14
-4 29 -3 31 7 18 15 -20 26 -22 19 -4 -2 7 4 24 16 37 11 13 21 21 21 19 1 -2
3 -16 5 -31 4 -37 29 -74 39 -58 6 9 10 9 16 -1 7 -11 9 -10 9 3 0 9 -4 19 -9
22 -7 5 -15 59 -26 196 l-4 55 13 -60 c7 -33 14 -51 16 -40 2 17 3 17 10 -5 7
-21 8 -18 9 19 1 41 2 43 15 26 8 -11 12 -23 10 -27 -2 -4 -1 -9 3 -11 16 -10
12 142 -6 288 -11 83 -22 194 -26 247 -5 86 -4 97 11 91 14 -5 14 -2 0 30 -19
46 -32 140 -16 114 6 -9 15 -15 21 -12 5 4 9 1 9 -6 0 -7 3 -9 7 -6 7 8 33
-11 33 -25 0 -5 -4 -6 -10 -3 -6 3 -10 -5 -10 -18 0 -14 6 -25 13 -24 50 2 57
-3 51 -30 -3 -16 -10 -38 -16 -50 -13 -27 -1 -44 15 -23 23 29 40 23 35 -12
-3 -27 0 -34 15 -34 10 0 16 7 15 16 -1 8 1 21 6 28 5 8 3 24 -4 38 -10 18
-10 29 -2 46 l11 23 0 -25 c1 -18 4 -21 10 -11 7 11 11 8 16 -10 8 -23 8 -23
15 -4 5 15 9 9 14 -26 7 -48 0 -83 -15 -73 -5 3 -7 21 -3 40 7 38 -4 45 -24
14 -9 -15 -9 -20 0 -20 9 0 9 -3 0 -12 -7 -7 -12 -22 -12 -35 0 -18 5 -22 23
-20 12 1 25 6 29 12 4 5 10 1 14 -9 5 -12 2 -22 -9 -28 -10 -5 -17 -18 -17
-28 0 -11 -4 -20 -10 -20 -5 0 -10 5 -10 11 0 8 -4 8 -14 0 -8 -7 -11 -22 -8
-38 3 -18 1 -24 -7 -19 -6 4 -11 1 -11 -8 0 -9 5 -16 10 -16 6 0 10 5 10 11 0
5 4 7 10 4 5 -3 8 0 5 7 -3 7 -1 19 4 27 7 12 13 12 24 3 7 -7 16 -9 20 -6 3
3 3 -3 0 -14 -2 -11 1 -23 8 -27 8 -5 10 -4 5 3 -5 8 -2 10 8 6 15 -6 21 -29
17 -61 -3 -21 19 -54 31 -47 8 5 9 1 5 -10 -4 -10 -7 -20 -7 -22 0 -3 -6 -2
-12 2 -10 6 -10 4 0 -8 7 -8 9 -23 6 -33 -5 -13 -3 -16 7 -13 16 5 55 -40 51
-58 -1 -7 2 -15 8 -19 5 -3 10 -1 10 5 0 6 4 9 9 6 5 -3 7 -15 4 -25 -3 -10 1
-22 8 -27 9 -5 11 -2 6 12 -5 13 2 9 20 -11 15 -16 30 -29 35 -28 4 2 8 -3 8
-10 0 -7 9 -13 21 -14 20 -2 20 -1 4 18 -10 10 -13 19 -8 19 13 0 24 -26 28
-64 3 -31 82 -119 98 -109 6 3 7 1 4 -4 -4 -6 2 -18 13 -28 10 -9 16 -23 13
-31 -3 -8 0 -14 6 -14 6 0 11 5 11 12 0 16 10 4 14 -18 6 -29 25 -74 31 -74 3
0 3 11 -1 25 -12 49 14 24 47 -44 21 -44 36 -65 41 -58 5 8 8 6 8 -6 0 -10 5
-15 10 -12 6 3 10 -4 10 -18 0 -44 12 -87 23 -80 6 4 7 -10 3 -39 -5 -33 -3
-48 8 -57 8 -7 12 -21 8 -33 -4 -16 -2 -19 8 -13 10 6 11 -2 6 -39 -7 -48 -1
-86 14 -86 5 0 11 8 13 18 3 9 5 -2 6 -26 0 -23 5 -50 10 -60 10 -19 29 -147
34 -226 2 -28 9 -52 15 -54 7 -2 12 -15 12 -28 0 -13 5 -24 11 -24 7 0 9 8 4
22 -3 13 -9 34 -11 48 -4 22 -3 21 9 -5 8 -17 14 -49 14 -71 0 -55 12 -87 29
-80 16 6 18 -8 5 -33 -7 -12 -2 -35 14 -76 13 -33 26 -81 30 -107 3 -27 10
-48 16 -48 5 0 9 -5 9 -11 0 -6 6 -17 14 -25 15 -14 20 -43 32 -159 4 -38 9
-64 11 -57 3 6 8 12 13 12 12 0 18 -48 8 -58 -6 -6 3 -24 26 -48 20 -21 36
-44 36 -51 0 -7 5 -13 10 -13 17 0 24 31 13 61 -8 21 -8 26 2 23 14 -6 55 -92
55 -117 0 -11 5 -14 16 -10 12 4 14 14 10 37 -6 29 -4 28 29 -18 19 -27 35
-53 35 -58 0 -4 5 -8 12 -8 9 0 9 3 0 12 -19 19 -15 41 4 30 9 -5 25 -7 35 -5
11 3 19 0 19 -7 0 -6 29 -39 65 -72 36 -34 65 -68 65 -76 0 -14 47 -102 54
-102 6 0 -6 44 -15 56 -5 6 -6 14 -2 17 3 4 -3 17 -14 30 -21 23 -47 87 -35
87 9 0 32 -49 32 -67 0 -7 9 -18 20 -25 11 -7 20 -21 20 -31 0 -10 4 -16 9
-12 5 3 12 -4 16 -15 3 -11 11 -20 16 -20 6 0 7 5 3 12 -4 7 -3 8 4 4 7 -4 12
-18 12 -32 0 -13 5 -24 11 -24 5 0 8 -4 5 -9 -4 -5 -3 -11 2 -13 4 -1 17 -16
30 -32 22 -29 29 -28 13 2 -4 9 -11 30 -15 45 -6 26 -4 28 16 25 14 -2 30 5
39 16 15 18 16 18 29 -13 8 -20 18 -30 26 -27 8 3 14 1 14 -4 0 -6 -6 -10 -12
-10 -7 0 -5 -5 5 -11 23 -14 26 -10 20 23 -3 18 -10 25 -19 21 -10 -4 -12 0
-8 11 3 9 1 16 -5 16 -6 0 -11 6 -11 14 0 8 -7 21 -15 30 -9 9 -11 17 -5 21
16 10 12 25 -5 19 -18 -7 -20 12 -2 23 12 8 28 12 60 15 16 2 25 18 9 18 -4 0
-9 12 -10 26 -1 15 -7 33 -13 40 -6 8 -9 14 -5 14 4 0 0 12 -7 28 -9 17 -11
37 -7 54 5 15 5 29 2 32 -3 3 0 6 7 6 7 0 11 6 8 14 -3 8 -1 17 6 20 9 3 9 5
0 5 -7 1 -13 5 -13 10 0 15 -42 103 -47 98 -2 -3 5 -25 16 -50 12 -25 21 -56
20 -69 -1 -23 -1 -23 -9 2 -4 14 -9 18 -9 10 -2 -29 -21 13 -21 48 0 29 -2 32
-19 23 -15 -8 -21 -7 -26 7 -7 14 -9 13 -15 -8 -13 -40 -11 -57 6 -74 8 -9 16
-25 17 -36 1 -11 5 -20 10 -20 4 0 5 -4 2 -10 -3 -5 2 -24 12 -42 21 -41 26
-68 12 -68 -17 0 -43 31 -32 38 6 4 7 15 2 27 -4 11 -8 14 -8 7 -1 -18 -18 -6
-24 17 -3 13 -1 18 9 14 16 -6 6 33 -20 82 -19 35 -20 55 -5 55 6 0 9 6 6 13
-2 6 1 18 9 24 10 10 13 10 17 0 2 -7 11 1 21 18 9 17 14 21 11 10 -5 -16 -4
-17 6 -8 10 10 9 19 -4 45 -12 22 -16 26 -13 11 4 -23 -22 -42 -28 -20 -15 50
-25 78 -21 58 3 -18 1 -21 -7 -13 -16 16 -38 82 -38 114 0 15 -4 30 -10 33 -5
3 -10 1 -10 -4 0 -6 -4 -11 -9 -11 -14 0 -21 40 -11 65 5 14 5 26 -3 34 -6 6
-8 14 -4 18 4 4 13 -8 19 -25 7 -18 15 -32 19 -32 4 0 12 -13 19 -30 7 -16 16
-27 20 -25 5 3 11 1 15 -5 3 -5 2 -10 -4 -10 -5 0 -2 -18 6 -40 11 -28 19 -37
25 -28 12 19 9 35 -3 18 -9 -12 -10 -10 -6 9 7 27 -11 71 -28 71 -11 0 -24 35
-30 83 -2 20 -45 64 -45 47 0 -14 -30 -45 -31 -33 -1 4 -3 24 -5 43 -6 71 -16
120 -25 126 -5 3 -9 0 -9 -5 0 -6 -4 -11 -9 -11 -15 0 -20 41 -9 69 9 21 12
23 15 9 3 -10 8 -18 13 -18 4 0 13 -13 20 -30 7 -16 16 -27 20 -25 5 3 11 1
15 -5 3 -5 2 -10 -4 -10 -5 0 -5 -12 2 -30 10 -28 12 -28 19 -10 9 23 -10 70
-27 70 -11 0 -30 52 -27 72 1 4 -5 23 -13 42 -16 37 -5 50 15 18 10 -15 11
-14 7 5 -3 13 -1 26 4 29 5 3 9 -2 9 -10 0 -9 5 -16 11 -16 5 0 7 5 4 10 -3 6
-2 10 4 10 6 0 6 11 1 30 -5 17 -5 30 0 30 5 0 11 -8 13 -18 3 -9 5 -2 6 17 1
29 -2 33 -19 28 -16 -4 -18 -2 -10 13 6 10 10 27 10 37 0 15 -2 16 -10 3 -7
-12 -10 -11 -16 5 -4 11 -9 23 -11 27 -2 4 3 5 11 2 13 -5 14 0 6 27 -5 18
-14 37 -20 43 -5 5 -10 17 -10 26 1 11 4 10 12 -5 6 -11 15 -23 20 -26 5 -3
10 -16 11 -27 1 -12 5 -22 10 -22 4 0 6 -4 3 -9 -3 -5 5 -33 17 -61 17 -37 26
-48 30 -37 3 9 1 18 -6 21 -7 2 -2 5 11 5 18 1 21 4 14 18 -5 9 -6 29 -2 44 5
15 6 30 2 33 -3 3 0 6 7 6 8 0 11 7 7 15 -3 8 -1 15 5 15 6 0 3 7 -5 16 -18
17 -21 44 -6 44 13 0 13 36 0 60 -8 15 -7 18 3 14 8 -3 25 -28 38 -57 13 -29
24 -54 25 -56 2 -1 8 0 14 4 8 5 8 11 1 19 -22 26 3 24 25 -2 19 -21 24 -23
24 -9 0 26 13 20 34 -16 10 -17 20 -27 23 -21 5 13 59 9 78 -6 8 -7 14 -22 14
-34 -1 -46 16 -75 54 -89 13 -5 16 -3 10 6 -4 7 3 5 17 -4 23 -15 47 -69 30
-69 -4 0 -10 -11 -12 -24 -4 -17 -1 -23 9 -19 7 3 12 13 11 22 -2 11 4 16 22
16 23 0 25 -4 26 -42 2 -75 4 -83 14 -83 6 0 10 8 10 18 0 13 2 14 9 3 7 -11
9 -11 14 0 4 10 6 9 6 -3 1 -10 6 -18 11 -18 6 0 10 -8 10 -18 0 -11 11 -32
24 -47 14 -16 25 -38 25 -49 0 -12 1 -29 1 -38 1 -9 10 -20 21 -23 10 -4 19
-11 19 -16 0 -6 8 -9 18 -8 9 1 24 1 33 0 19 -1 75 -86 72 -110 -1 -9 0 -11 3
-3 8 18 22 6 39 -34 8 -19 22 -37 32 -41 10 -4 24 -14 31 -22 9 -10 11 -11 6
-2 -5 10 -3 12 5 6 8 -5 11 -18 7 -37 -3 -18 -2 -27 4 -23 6 3 10 -3 10 -14 0
-11 5 -23 10 -26 6 -3 10 0 10 7 0 7 9 2 20 -12 21 -28 18 -39 -5 -20 -10 8
-15 9 -15 1 0 -6 4 -11 8 -11 4 0 16 -13 25 -30 10 -16 23 -27 31 -24 16 6 40
-21 33 -38 -4 -8 -6 -7 -6 5 -1 9 -5 17 -11 17 -13 0 -13 -3 8 -50 12 -30 22
-40 35 -36 10 2 17 -1 17 -10 0 -8 5 -14 10 -14 6 0 10 -4 10 -10 0 -5 -6 -9
-12 -7 -7 1 -12 -6 -12 -15 1 -10 -3 -15 -8 -12 -5 4 -8 14 -5 24 3 11 -2 21
-10 24 -21 8 -20 9 -21 -21 0 -16 11 -41 24 -56 13 -16 24 -33 24 -37 0 -5 6
-7 14 -4 16 6 46 -47 46 -81 0 -12 6 -22 14 -22 11 0 13 11 11 41 l-4 41 22
-45 c20 -40 21 -47 8 -68 -14 -23 -14 -24 18 -90 3 -8 10 -13 15 -12 5 1 13
-4 17 -12 6 -10 9 -8 9 7 0 11 -5 27 -10 35 -8 13 -10 12 -10 -4 0 -29 -6 -16
-15 29 l-7 40 26 -24 c14 -13 28 -37 32 -54 3 -17 13 -37 21 -45 17 -17 13
-58 -5 -55 -16 4 -15 -5 3 -23 8 -8 12 -21 9 -28 -13 -35 25 -23 111 36 82 54
115 88 87 88 -9 0 -34 62 -27 69 8 7 34 -32 35 -51 0 -24 14 -29 36 -13 12 9
15 18 9 22 -5 5 -18 25 -28 46 -9 21 -22 35 -27 32 -6 -3 -11 0 -11 7 -2 25
-5 33 -23 76 -10 23 -22 42 -27 42 -5 0 -9 10 -8 23 0 22 0 22 17 -3 9 -14 30
-38 45 -54 15 -16 25 -36 22 -43 -2 -8 -1 -11 4 -8 5 3 12 1 16 -5 3 -5 1 -10
-5 -10 -5 0 2 -22 16 -50 14 -27 30 -50 34 -50 19 0 21 22 5 46 -22 34 -14 39
20 13 l27 -22 28 30 c20 21 25 34 19 44 -11 17 -11 29 -1 28 24 -4 42 3 42 16
0 8 7 15 15 15 13 0 14 4 5 20 -10 19 -1 28 14 13 13 -13 55 -10 60 4 6 14
-49 48 -57 35 -2 -4 -2 -1 -1 6 2 7 -6 22 -17 33 -11 11 -17 25 -13 31 4 6 3
8 -4 4 -6 -3 -18 1 -26 10 -19 18 -22 4 -3 -16 6 -7 -2 -4 -19 8 -17 12 -37
29 -44 39 -12 15 -12 16 0 5 20 -17 35 -15 20 3 -7 8 -9 15 -4 15 5 0 -2 10
-16 21 l-25 20 23 -6 c21 -6 22 -5 14 12 -6 10 -24 27 -41 38 -21 14 -29 25
-25 38 3 9 1 17 -5 17 -6 0 -11 7 -11 15 0 8 -4 15 -10 15 -5 0 -10 8 -10 18
0 22 -94 217 -109 226 -6 4 -11 2 -11 -4 0 -6 -5 -8 -11 -4 -8 5 -8 1 0 -14
21 -39 11 -36 -20 6 -17 23 -35 42 -39 42 -5 0 -15 12 -23 28 -8 15 -33 60
-56 101 -22 41 -41 79 -41 85 0 7 -6 18 -12 25 -10 11 -10 13 0 7 6 -4 12 -2
12 4 0 7 9 9 23 5 21 -6 21 -5 3 9 -10 8 -16 19 -12 24 3 5 -1 9 -8 9 -8 0
-11 -8 -8 -20 4 -14 0 -18 -14 -15 -38 7 -112 181 -84 198 14 9 9 19 -54 119
-24 36 -46 73 -50 81 -4 8 -22 42 -41 75 -61 110 -93 180 -174 384 -11 29 -21
67 -21 82 0 16 -4 29 -10 29 -5 0 -10 6 -10 14 0 7 -14 40 -30 72 -17 32 -40
81 -51 108 -19 46 -118 249 -142 291 -7 11 -35 58 -64 105 -45 75 -53 97 -68
185 -10 55 -21 102 -25 105 -4 3 -10 21 -14 40 -4 19 -8 44 -10 55 -3 11 -5
30 -5 43 -1 15 -5 21 -13 16 -7 -5 -9 -2 -5 8 9 24 -40 193 -80 273 -21 43
-76 105 -94 105 -3 0 -12 11 -19 25 -7 13 -17 22 -22 19 -4 -3 -8 5 -8 18 0
18 -2 20 -10 8 -8 -12 -10 -11 -10 8 0 12 -4 22 -10 22 -5 0 -10 6 -10 14 0 7
-7 27 -15 42 -8 16 -15 37 -15 46 0 11 -5 15 -14 12 -9 -3 -28 17 -55 56 -22
34 -51 70 -65 81 -13 10 -36 43 -51 73 -19 37 -35 56 -49 58 -14 2 -22 12 -25
28 -1 14 -12 37 -22 51 -10 15 -19 30 -19 33 0 3 -7 14 -16 24 -30 34 -64 93
-59 103 4 5 -2 9 -12 9 -10 0 -24 9 -31 21 -9 14 -10 19 -2 14 17 -10 -4 28
-24 45 -9 7 -16 19 -16 27 0 8 -5 11 -10 8 -10 -6 -90 62 -90 77 0 4 -11 19
-25 34 -14 15 -25 36 -25 48 0 16 -3 17 -9 7 -6 -10 -15 -5 -35 21 -14 19 -26
40 -26 45 0 6 -6 16 -14 23 -8 6 -12 18 -9 26 3 8 0 14 -7 14 -6 0 -8 -4 -5
-10 3 -5 1 -10 -4 -10 -6 0 -11 7 -11 16 0 16 -68 94 -82 94 -4 0 -22 15 -41
33 -47 46 -82 69 -183 123 -49 26 -102 56 -117 66 -15 11 -35 21 -43 22 -9 1
-19 7 -22 13 -4 6 -48 31 -97 55 -77 37 -90 46 -88 66 2 13 -4 25 -13 29 -8 3
-29 33 -46 66 -17 34 -40 77 -53 97 -12 19 -25 49 -28 65 -4 17 -10 41 -13 55
-7 22 -6 24 9 11 9 -7 18 -21 18 -30 1 -9 5 2 9 24 9 46 2 105 -15 121 -10 10
-11 38 -6 128 1 20 1 20 16 0 23 -30 18 1 -10 58 -14 28 -23 53 -21 55 2 2 19
-16 37 -41 18 -25 33 -46 35 -46 1 0 -4 21 -12 48 -16 53 -75 172 -85 172 -8
0 -41 81 -65 160 -20 65 -35 85 -75 99 -22 8 -29 7 -29 -3z m174 -753 l18 -38
-26 24 c-14 14 -26 30 -26 38 0 25 16 13 34 -24z m1281 -1373 c3 -5 1 -10 -4
-10 -6 0 -11 5 -11 10 0 6 2 10 4 10 3 0 8 -4 11 -10z m-2268 -132 c-3 -8 -6
-5 -6 6 -1 11 2 17 5 13 3 -3 4 -12 1 -19z m-7 -63 c0 -16 -6 -25 -16 -25 -8
0 -12 5 -8 11 3 6 0 16 -7 21 -11 8 -10 9 4 4 9 -3 17 -1 17 4 0 6 2 10 5 10
3 0 5 -11 5 -25z m-14 -289 c-2 -18 -6 -38 -10 -45 -11 -16 -29 -13 -22 4 3 8
1 26 -4 39 -6 17 -5 26 3 30 29 11 36 5 33 -28z m39 -113 c-4 -10 -8 -75 -9
-146 -2 -83 -6 -131 -14 -139 -7 -7 -12 -23 -12 -37 0 -46 -9 -15 -23 81 -15
98 -13 147 7 161 8 5 6 10 -4 17 -11 7 -11 10 -2 10 7 0 10 5 7 10 -4 6 6 23
22 38 31 30 39 32 28 5z m45 -83 c0 -4 -9 -6 -21 -3 -15 4 -17 8 -8 14 14 8
29 3 29 -11z m0 -89 c0 -6 -4 -13 -10 -16 -5 -3 -10 1 -10 9 0 9 5 16 10 16 6
0 10 -4 10 -9z m-15 -63 c-8 -43 -15 -48 -15 -11 0 26 6 43 17 43 2 0 1 -14
-2 -32z m765 -199 c0 -11 -4 -17 -10 -14 -5 3 -10 13 -10 21 0 8 5 14 10 14 6
0 10 -9 10 -21z m147 -151 c-3 -8 -6 -5 -6 6 -1 11 2 17 5 13 3 -3 4 -12 1
-19z m-780 -110 c-3 -8 -6 -5 -6 6 -1 11 2 17 5 13 3 -3 4 -12 1 -19z m-141
-108 c0 -11 -4 -20 -8 -20 -10 0 -11 24 -1 33 9 9 9 10 9 -13z m1064 -51 c0
-6 -4 -7 -10 -4 -5 3 -10 11 -10 16 0 6 5 7 10 4 6 -3 10 -11 10 -16z m79 -93
c-9 -8 -10 -7 -5 7 3 10 7 28 7 40 2 16 3 14 6 -7 3 -16 -1 -34 -8 -40z m46
54 c3 -5 1 -10 -4 -10 -6 0 -11 5 -11 10 0 6 2 10 4 10 3 0 8 -4 11 -10z
m-1128 -42 c-3 -8 -6 -5 -6 6 -1 11 2 17 5 13 3 -3 4 -12 1 -19z m1028 -18 c3
-5 1 -10 -4 -10 -6 0 -11 5 -11 10 0 6 2 10 4 10 3 0 8 -4 11 -10z m65 -20 c0
-5 -9 -15 -20 -22 -23 -15 -27 -40 -5 -32 11 5 14 0 13 -20 l-2 -27 -18 23
c-22 29 -25 83 -3 74 8 -3 15 -1 15 4 0 6 5 10 10 10 6 0 10 -4 10 -10z m90
-40 c0 -5 -5 -10 -11 -10 -5 0 -7 5 -4 10 3 6 8 10 11 10 2 0 4 -4 4 -10z m8
-58 c2 -7 -2 -10 -12 -6 -9 3 -16 11 -16 16 0 13 23 5 28 -10z m59 -44 c-3 -8
-6 -5 -6 6 -1 11 2 17 5 13 3 -3 4 -12 1 -19z m-87 1 c0 -6 -4 -7 -10 -4 -18
11 -10 -11 10 -30 21 -19 26 -40 11 -49 -11 -7 -41 37 -47 68 -3 16 2 22 16
23 11 1 20 -3 20 -8z m120 -44 c-8 -10 -8 -15 4 -22 19 -10 11 -49 -11 -58
-21 -7 -30 2 -16 16 8 8 8 20 3 35 -6 15 -6 34 1 52 9 24 11 25 20 9 7 -12 7
-22 -1 -32z m-563 3 c-3 -8 -6 -5 -6 6 -1 11 2 17 5 13 3 -3 4 -12 1 -19z
m-647 -52 c0 -3 -4 -8 -10 -11 -5 -3 -10 -1 -10 4 0 6 5 11 10 11 6 0 10 -2
10 -4z m577 -58 c-3 -8 -6 -5 -6 6 -1 11 2 17 5 13 3 -3 4 -12 1 -19z m-67
-68 c0 -11 -2 -20 -4 -20 -2 0 -6 9 -9 20 -3 11 -1 20 4 20 5 0 9 -9 9 -20z
m90 -42 c0 -31 -3 -39 -11 -31 -7 7 -8 24 -4 42 9 43 15 39 15 -11z m-249
-121 c-16 -16 -25 -1 -10 16 8 8 16 11 18 5 2 -5 -2 -15 -8 -21z m71 -19 c-6
-6 -15 -8 -19 -4 -4 4 -1 11 7 16 19 12 27 3 12 -12z m1075 -290 c-3 -8 -6 -5
-6 6 -1 11 2 17 5 13 3 -3 4 -12 1 -19z m1851 -149 c18 -31 32 -60 32 -65 0
-12 -90 138 -90 151 0 12 18 -14 58 -86z m-983 -5 c9 -19 18 -52 21 -72 3 -31
2 -33 -5 -12 -5 14 -9 19 -10 11 -2 -26 -12 -4 -25 53 -15 64 -6 73 19 20z
m-37 8 c6 -18 -15 -14 -22 4 -4 10 -1 14 6 12 6 -2 14 -10 16 -16z m-61 -34
c-3 -8 -6 -5 -6 6 -1 11 2 17 5 13 3 -3 4 -12 1 -19z m70 -30 c-3 -8 -6 -5 -6
6 -1 11 2 17 5 13 3 -3 4 -12 1 -19z m1098 -65 c29 -44 32 -66 8 -61 -18 3
-60 98 -43 98 5 0 21 -17 35 -37z m-1147 -1 c6 -18 -15 -14 -22 4 -4 10 -1 14
6 12 6 -2 14 -10 16 -16z m-61 -34 c-3 -8 -6 -5 -6 6 -1 11 2 17 5 13 3 -3 4
-12 1 -19z m153 -38 c0 -5 -7 -10 -16 -10 -8 0 -12 5 -9 10 3 6 10 10 16 10 5
0 9 -4 9 -10z m-101 -43 c-5 -21 -7 -48 -3 -60 4 -15 3 -19 -4 -12 -17 16 -26
65 -12 65 6 0 8 5 5 10 -6 10 14 45 21 37 2 -2 -1 -20 -7 -40z m1511 -540 c0
-16 -18 3 -23 25 -6 22 -5 22 8 4 8 -11 15 -24 15 -29z m41 -144 c13 -16 12
-17 -3 -4 -10 7 -18 15 -18 17 0 8 8 3 21 -13z m-1441 -41 c0 -7 -4 -10 -10
-7 -5 3 -10 16 -10 28 0 18 2 19 10 7 5 -8 10 -21 10 -28z m0 -54 c0 -6 -6 -5
-15 2 -8 7 -15 14 -15 16 0 2 7 1 15 -2 8 -4 15 -11 15 -16z m80 -63 c0 -8 -2
-15 -4 -15 -2 0 -6 7 -10 15 -3 8 -1 15 4 15 6 0 10 -7 10 -15z m1101 -183
c21 -49 24 -66 9 -57 -6 4 -8 10 -5 14 2 5 -4 16 -15 26 -11 10 -20 27 -20 37
0 11 -4 17 -9 14 -5 -3 -12 5 -15 19 -4 14 -12 24 -19 22 -6 -1 -11 6 -9 15 2
10 -2 26 -7 37 -6 10 -8 21 -4 24 7 7 67 -90 94 -151z m-1153 110 c6 -18 -15
-14 -22 4 -4 10 -1 14 6 12 6 -2 14 -10 16 -16z m1060 -14 c-1 -7 8 -33 21
-57 12 -23 17 -40 11 -36 -7 4 -17 1 -22 -6 -6 -10 -7 -7 -3 9 4 15 2 28 -8
35 -28 23 -28 59 1 66 2 1 2 -5 0 -11z m111 -14 c3 -16 1 -17 -13 -5 -19 16
-21 34 -3 29 6 -3 14 -13 16 -24z m-1232 -6 c-3 -8 -6 -5 -6 6 -1 11 2 17 5
13 3 -3 4 -12 1 -19z m1583 6 c0 -8 -4 -12 -10 -9 -5 3 -10 0 -10 -7 0 -9 -3
-9 -10 2 -15 23 -12 30 10 30 11 0 20 -7 20 -16z m-225 -54 c-3 -6 0 -10 7
-10 8 0 19 -13 25 -29 9 -24 8 -31 -4 -36 -20 -7 -42 23 -43 57 0 15 -4 30
-10 33 -6 4 -7 -1 -3 -12 3 -10 3 -15 -1 -11 -4 3 -10 21 -12 40 l-5 33 26
-28 c14 -15 23 -32 20 -37z m-71 -42 c20 -38 32 -68 27 -68 -6 0 -20 22 -33
49 -12 27 -26 47 -30 45 -4 -3 -8 7 -8 22 0 33 -2 35 44 -48z m-1134 52 c0 -5
-7 -10 -16 -10 -8 0 -12 5 -9 10 3 6 10 10 16 10 5 0 9 -4 9 -10z m-90 -4 c0
-3 -4 -8 -10 -11 -5 -3 -10 -1 -10 4 0 6 5 11 10 11 6 0 10 -2 10 -4z m-23
-48 c-3 -8 -6 -5 -6 6 -1 11 2 17 5 13 3 -3 4 -12 1 -19z m1523 11 c0 -6 8 -8
19 -4 14 4 21 0 26 -15 4 -12 4 -24 1 -27 -3 -4 -6 1 -6 10 0 10 -5 17 -10 17
-6 0 -8 -10 -4 -24 6 -25 -3 -35 -34 -41 -21 -4 -58 48 -47 65 8 14 28 1 22
-14 -3 -7 5 -13 20 -14 19 -1 24 2 21 16 -2 9 -10 16 -16 15 -7 -2 -12 4 -12
12 0 8 5 15 10 15 6 0 10 -5 10 -11z m77 -21 c-3 -8 -6 -5 -6 6 -1 11 2 17 5
13 3 -3 4 -12 1 -19z m-1459 -26 c3 -16 -1 -20 -12 -16 -10 4 -16 1 -16 -9 0
-15 -18 -33 -24 -26 -2 2 -7 20 -10 39 -7 35 -7 35 8 10 l14 -25 7 28 c8 32
28 31 33 -1z m-63 -111 c9 -18 12 -30 7 -27 -6 4 -13 2 -17 -4 -17 -28 -25 5
-16 69 1 7 8 -2 26 -38z m1206 -72 c16 -20 29 -41 29 -47 0 -6 5 -12 12 -14 6
-2 9 -10 7 -16 -6 -18 -76 77 -83 113 -3 17 -3 23 0 15 4 -8 20 -31 35 -51z
m59 40 c0 -5 -4 -9 -10 -9 -5 0 -10 7 -10 16 0 8 5 12 10 9 6 -3 10 -10 10
-16z m44 -78 c4 -6 1 -9 -7 -5 -17 6 -29 42 -20 58 4 6 10 -2 14 -16 4 -15 10
-31 13 -37z m-56 18 c-3 -8 -7 -3 -11 10 -4 17 -3 21 5 13 5 -5 8 -16 6 -23z"/>
<path d="M2316 4074 c-9 -24 -7 -27 9 -10 17 17 19 26 6 26 -5 0 -12 -7 -15
-16z"/>
<path d="M3372 6410 c0 -14 2 -19 5 -12 2 6 2 18 0 25 -3 6 -5 1 -5 -13z"/>
<path d="M3396 6217 c3 -10 9 -15 12 -12 3 3 0 11 -7 18 -10 9 -11 8 -5 -6z"/>
<path d="M4331 5284 c0 -21 3 -33 6 -26 2 6 9 10 14 6 14 -8 10 19 -6 40 -14
19 -15 17 -14 -20z"/>
<path d="M4420 5200 c0 -5 5 -10 10 -10 6 0 10 5 10 10 0 6 -4 10 -10 10 -5 0
-10 -4 -10 -10z"/>
<path d="M4561 4974 c0 -11 3 -14 6 -6 3 7 2 16 -1 19 -3 4 -6 -2 -5 -13z"/>
<path d="M4730 4741 c0 -5 7 -12 16 -15 14 -5 15 -4 4 9 -14 17 -20 19 -20 6z"/>
<path d="M2259 4633 c-6 -32 -5 -83 2 -83 5 0 9 20 9 45 0 25 -2 45 -5 45 -3
0 -6 -3 -6 -7z"/>
<path d="M2250 4529 c0 -5 5 -7 10 -4 6 3 10 8 10 11 0 2 -4 4 -10 4 -5 0 -10
-5 -10 -11z"/>
<path d="M3200 3630 c0 -5 7 -10 15 -10 8 0 15 5 15 10 0 6 -7 10 -15 10 -8 0
-15 -4 -15 -10z"/>
<path d="M3177 3600 c-3 -11 -1 -23 4 -26 5 -3 9 6 9 20 0 31 -6 34 -13 6z"/>
<path d="M3261 3449 c-1 -9 7 -23 17 -30 15 -12 16 -12 6 1 -6 8 -14 22 -17
30 -5 13 -6 12 -6 -1z"/>
<path d="M3363 3355 c-10 -10 -9 -16 3 -26 8 -7 13 -18 10 -26 -3 -8 -2 -12 3
-9 5 3 11 -8 15 -24 4 -22 11 -30 26 -30 22 0 21 1 -19 70 -5 8 -13 25 -17 37
-7 17 -11 19 -21 8z"/>
<path d="M2640 3161 c6 -12 10 -32 7 -42 -3 -12 0 -19 9 -19 18 0 9 48 -13 70
-14 13 -14 12 -3 -9z"/>
<path d="M3490 3130 c0 -5 5 -10 11 -10 5 0 7 5 4 10 -3 6 -8 10 -11 10 -2 0
-4 -4 -4 -10z"/>
<path d="M3665 2920 c3 -5 8 -10 11 -10 2 0 4 5 4 10 0 6 -5 10 -11 10 -5 0
-7 -4 -4 -10z"/>
<path d="M2474 2873 c1 -29 5 -43 15 -43 9 0 11 8 7 26 -4 15 -2 33 6 42 11
15 11 15 -4 4 -13 -10 -17 -10 -21 0 -2 7 -4 -6 -3 -29z"/>
<path d="M3167 2904 c-4 -4 -7 -14 -7 -23 0 -11 3 -12 11 -4 6 6 10 16 7 23
-2 6 -7 8 -11 4z"/>
<path d="M3705 2880 c21 -24 26 -25 19 -6 -3 8 -13 17 -22 21 -13 5 -13 2 3
-15z"/>
<path d="M2646 2873 c-6 -14 -5 -15 5 -6 7 7 10 15 7 18 -3 3 -9 -2 -12 -12z"/>
<path d="M3740 2846 c0 -2 8 -10 18 -17 15 -13 16 -12 3 4 -13 16 -21 21 -21
13z"/>
<path d="M2600 2805 c-1 -5 -3 -20 -6 -32 -3 -17 0 -21 11 -17 8 4 15 10 15
15 0 16 18 9 23 -8 2 -10 4 -2 4 17 0 19 -2 29 -4 23 -3 -7 -11 -13 -18 -13
-7 0 -16 6 -18 13 -3 6 -6 8 -7 2z"/>
<path d="M2917 2620 c-9 -13 -14 -26 -12 -29 9 -8 38 26 33 40 -3 8 -10 5 -21
-11z"/>
<path d="M2861 2584 c0 -11 3 -14 6 -6 3 7 2 16 -1 19 -3 4 -6 -2 -5 -13z"/>
<path d="M2671 2574 c0 -11 3 -14 6 -6 3 7 2 16 -1 19 -3 4 -6 -2 -5 -13z"/>
<path d="M2923 2505 c0 -22 2 -30 4 -17 2 12 2 30 0 40 -3 9 -5 -1 -4 -23z"/>
<path d="M2601 2514 c0 -11 3 -14 6 -6 3 7 2 16 -1 19 -3 4 -6 -2 -5 -13z"/>
<path d="M2571 2481 c-9 -16 -8 -19 6 -17 20 3 28 21 14 30 -5 4 -15 -2 -20
-13z"/>
<path d="M2681 2414 c0 -11 3 -14 6 -6 3 7 2 16 -1 19 -3 4 -6 -2 -5 -13z"/>
<path d="M4931 2133 c-1 -12 -4 -30 -8 -40 -7 -17 -6 -17 11 0 15 14 16 23 8
40 l-11 22 0 -22z"/>
<path d="M5390 1823 c0 -7 6 -13 13 -13 8 0 14 6 14 13 0 8 -6 14 -14 14 -7 0
-13 -6 -13 -14z"/>
<path d="M5360 1814 c0 -8 5 -12 10 -9 6 3 10 10 10 16 0 5 -4 9 -10 9 -5 0
-10 -7 -10 -16z"/>
<path d="M6137 1799 c3 -11 13 -19 23 -19 10 0 21 -8 23 -17 4 -15 5 -15 6 2
0 12 -10 26 -28 36 -27 16 -28 16 -24 -2z"/>
<path d="M6206 1685 c4 -8 8 -15 10 -15 2 0 4 7 4 15 0 8 -4 15 -10 15 -5 0
-7 -7 -4 -15z"/>
<path d="M5550 1660 c0 -5 5 -10 11 -10 5 0 7 5 4 10 -3 6 -8 10 -11 10 -2 0
-4 -4 -4 -10z"/>
<path d="M4221 1470 c0 -8 4 -22 9 -30 12 -18 12 -2 0 25 -6 13 -9 15 -9 5z"/>
<path d="M4281 1364 c0 -11 3 -14 6 -6 3 7 2 16 -1 19 -3 4 -6 -2 -5 -13z"/>
<path d="M4955 1270 c-3 -5 -1 -10 4 -10 6 0 11 5 11 10 0 6 -2 10 -4 10 -3 0
-8 -4 -11 -10z"/>
<path d="M6510 1216 c0 -2 7 -7 16 -10 8 -3 12 -2 9 4 -6 10 -25 14 -25 6z"/>
<path d="M6540 1187 c0 -3 12 -12 26 -22 15 -9 23 -12 20 -6 -7 11 -46 35 -46
28z"/>
<path d="M5057 1086 c-3 -22 -2 -46 4 -55 8 -12 9 -10 5 11 -4 16 -1 28 6 30
10 4 10 11 2 28 -10 23 -11 23 -17 -14z"/>
<path d="M4418 1033 c7 -3 16 -2 19 1 4 3 -2 6 -13 5 -11 0 -14 -3 -6 -6z"/>
<path d="M3941 964 c0 -11 3 -14 6 -6 3 7 2 16 -1 19 -3 4 -6 -2 -5 -13z"/>
<path d="M5105 970 c-3 -5 -1 -10 4 -10 6 0 11 5 11 10 0 6 -2 10 -4 10 -3 0
-8 -4 -11 -10z"/>
<path d="M5036 901 c-4 -6 0 -23 8 -38 l15 -28 0 25 c1 31 -14 57 -23 41z"/>
<path d="M4865 770 c3 -5 8 -10 11 -10 2 0 4 5 4 10 0 6 -5 10 -11 10 -5 0 -7
-4 -4 -10z"/>
<path d="M5090 748 c0 -3 7 -19 15 -34 8 -16 15 -22 15 -14 -1 8 -7 24 -15 34
-8 11 -15 17 -15 14z"/>
<path d="M4820 723 c0 -5 9 -18 20 -28 11 -10 20 -14 20 -8 0 5 -9 18 -20 28
-11 10 -20 14 -20 8z"/>
<path d="M5050 706 c0 -9 5 -16 10 -16 6 0 10 4 10 9 0 6 -4 13 -10 16 -5 3
-10 -1 -10 -9z"/>
<path d="M5100 655 c0 -14 4 -25 9 -25 4 0 6 11 3 25 -2 14 -6 25 -8 25 -2 0
-4 -11 -4 -25z"/>
<path d="M3891 654 c0 -11 3 -14 6 -6 3 7 2 16 -1 19 -3 4 -6 -2 -5 -13z"/>
<path d="M5210 491 c0 -6 4 -13 10 -16 6 -3 7 1 4 9 -7 18 -14 21 -14 7z"/>
<path d="M3551 270 c-13 -11 -19 -20 -14 -20 6 0 18 9 28 20 23 25 17 25 -14
0z"/>
<path d="M3493 265 c-3 -9 -3 -19 1 -22 3 -4 -2 -16 -11 -27 -17 -20 -17 -20
2 -4 10 9 19 29 20 43 1 29 -3 32 -12 10z"/>
<path d="M3371 216 c-1 -24 1 -27 14 -16 16 13 21 35 6 26 -5 -4 -12 0 -14 6
-3 7 -6 0 -6 -16z"/>
<path d="M3426 196 c3 -8 -3 -19 -15 -26 -14 -7 -21 -7 -21 0 0 5 -4 10 -10
10 -5 0 -10 -7 -10 -16 0 -8 -4 -12 -10 -9 -5 3 -10 2 -10 -4 0 -16 18 -23 22
-9 3 7 13 13 24 13 27 1 64 27 64 45 0 13 -1 13 -10 0 -6 -10 -10 -11 -10 -2
0 6 -4 12 -10 12 -5 0 -7 -6 -4 -14z"/>
<path d="M3320 165 c-11 -13 -10 -14 4 -9 9 3 16 10 16 15 0 13 -6 11 -20 -6z"/>
<path d="M3326 124 c-4 -9 -4 -19 -1 -22 2 -3 7 3 11 12 4 9 4 19 1 22 -2 3
-7 -3 -11 -12z"/>
</g>
</svg>
